<svg xmlns="http://www.w3.org/2000/svg" viewBox="0 0 1024 1024" role="img" aria-label="Junco icon option A">
  <defs>
    <radialGradient id="bg" cx="28%" cy="22%" r="82%">
      <stop offset="0%" stop-color="#1f3a2f" />
      <stop offset="100%" stop-color="#0b1410" />
    </radialGradient>
    <linearGradient id="body" x1="0%" y1="0%" x2="100%" y2="100%">
      <stop offset="0%" stop-color="#3f7b68" />
      <stop offset="100%" stop-color="#254f43" />
    </linearGradient>
  </defs>

  <circle cx="512" cy="512" r="480" fill="url(#bg)" />
  <circle cx="512" cy="512" r="450" fill="none" stroke="#29483c" stroke-width="12" opacity="0.7" />

  <ellipse cx="585" cy="585" rx="300" ry="210" fill="url(#body)" transform="rotate(-12 585 585)" />
  <path
    d="M 510 520 C 630 470 780 520 750 670 C 650 725 545 670 510 520 Z"
    fill="#1f463b"
  />
  <path d="M 800 650 L 920 690 L 820 760 Z" fill="#18372e" />

  <circle cx="360" cy="360" r="88" fill="#f3eadf" />
  <circle cx="392" cy="350" r="10" fill="#1b201a" />
  <path d="M 265 372 L 335 342 L 335 402 Z" fill="#f0a14a" />
  <path d="M 400 415 C 430 430 460 455 470 490" stroke="#f3eadf" stroke-width="18" stroke-linecap="round" />

  <circle cx="720" cy="440" r="18" fill="#5ec0a1" />
  <circle cx="720" cy="440" r="8" fill="#d6fff0" />
</svg>
