<svg xmlns="http://www.w3.org/2000/svg" viewBox="0 0 1024 1024" role="img" aria-label="Junco tailflash icon (dark)">
  <rect width="1024" height="1024" fill="#1f2628" />
  <path d="M4265 1730 c-102 -11 -204 -29 -225 -40 -10 -6 -28 -10 -39 -10 -38
0 -322 -98 -476 -165 -27 -12 -95 -41 -150 -65 -55 -24 -146 -65 -202 -92 -57
-26 -105 -48 -108 -48 -3 0 -51 -23 -108 -51 -191 -94 -340 -155 -572 -233
-164 -55 -407 -121 -525 -141 -41 -7 -104 -20 -140 -28 -106 -24 -322 -52
-520 -67 -74 -6 -153 -13 -175 -15 -22 -3 -219 -12 -437 -22 -381 -16 -397
-18 -381 -35 9 -10 22 -18 30 -18 7 0 21 -4 31 -9 51 -28 111 -51 130 -51 12
0 22 -3 22 -7 0 -5 35 -19 78 -31 42 -13 85 -28 94 -33 10 -5 28 -9 40 -9 12
0 47 -9 77 -19 78 -27 224 -61 261 -61 17 0 45 -7 62 -16 38 -20 127 -20 193
0 28 9 62 16 77 16 15 0 37 4 50 9 13 5 79 21 148 36 69 15 161 38 205 50 44
13 91 27 105 30 14 4 39 13 55 20 17 7 53 17 80 22 45 10 229 71 280 93 11 5
43 18 70 29 232 91 235 92 235 66 0 -8 -27 -36 -60 -62 -33 -25 -60 -50 -60
-55 0 -4 -6 -8 -14 -8 -8 0 -16 -3 -18 -7 -5 -13 -76 -63 -87 -63 -6 0 -11 -4
-11 -10 0 -5 -30 -26 -67 -46 -38 -21 -82 -48 -99 -61 -17 -13 -36 -23 -42
-23 -6 0 -12 -3 -14 -7 -3 -8 -22 -19 -158 -91 -47 -24 -90 -48 -96 -53 -6 -5
-44 -25 -84 -45 -82 -39 -82 -50 -2 -63 28 -4 57 -13 64 -18 19 -15 191 -63
227 -63 16 0 31 -4 33 -8 6 -14 240 -66 316 -70 39 -2 72 -7 72 -12 0 -4 21
-10 48 -13 188 -21 243 -28 286 -38 31 -7 139 -12 285 -11 191 0 259 4 356 20
232 40 335 68 472 128 17 8 34 14 37 14 3 0 30 16 60 35 30 19 58 35 62 35 12
0 158 102 181 127 12 12 25 23 28 23 7 0 205 196 205 204 0 5 33 44 95 110 11
12 29 35 39 51 18 28 181 232 211 265 13 14 22 23 55 56 46 45 133 109 185
136 33 16 65 34 70 38 6 5 46 18 90 31 117 32 193 58 173 59 -10 0 -18 5 -18
10 0 6 -9 10 -20 10 -11 0 -49 16 -86 36 -37 20 -88 42 -115 50 -26 8 -55 25
-64 37 -28 41 -107 117 -121 117 -7 0 -18 8 -23 18 -19 36 -202 98 -331 112
-88 10 -226 10 -325 0z" fill="#f6f2ea" transform="translate(244 426) translate(0.000000,174.000000) scale(0.100000,-0.100000)" />
  <path d="M6 1696 c3 -8 14 -18 25 -21 10 -4 19 -11 19 -17 0 -15 230 -238 246
-238 8 0 14 -6 14 -14 0 -8 10 -16 23 -20 12 -3 51 -28 87 -55 36 -28 80 -53
98 -57 17 -3 32 -10 32 -14 0 -5 9 -12 21 -15 12 -4 30 -16 40 -26 10 -10 28
-19 40 -19 13 0 23 -8 26 -21 4 -14 8 -17 13 -9 11 17 62 -1 75 -26 7 -14 22
-19 56 -21 26 0 74 -9 109 -20 48 -14 65 -24 73 -43 8 -20 11 -22 14 -7 5 20
63 25 63 5 0 -9 28 -14 98 -16 53 -1 123 -7 156 -13 77 -14 411 -9 556 8 63 8
125 12 138 10 12 -2 22 -1 22 3 0 9 49 29 100 40 71 16 216 62 250 79 19 10
49 21 65 25 34 8 118 46 125 57 3 4 33 17 68 28 34 12 71 30 82 41 20 20 20
20 0 20 -11 0 -20 5 -20 10 0 6 -63 10 -167 10 -93 0 -197 4 -233 9 -36 5
-114 12 -175 16 -85 4 -113 10 -123 22 -7 10 -12 12 -12 5 0 -7 -13 -12 -30
-12 -16 0 -30 5 -30 10 0 6 -6 10 -14 10 -8 0 -17 6 -19 13 -3 7 -6 5 -6 -5
-1 -14 -9 -16 -53 -12 -270 25 -418 44 -418 53 0 3 -21 6 -47 7 -64 1 -163 19
-171 30 -4 5 -36 10 -71 11 -36 1 -67 7 -71 13 -6 9 -9 9 -12 0 -3 -10 -19 -9
-73 4 -39 9 -80 19 -92 21 -12 3 -24 13 -27 23 -6 19 -65 23 -100 7 -19 -8
-109 7 -419 71 -64 13 -136 24 -160 24 -24 0 -47 4 -53 10 -5 5 -40 12 -77 15
-57 5 -66 4 -61 -9z" fill="#9aa58a" transform="translate(244 426) translate(0.000000,174.000000) scale(0.100000,-0.100000)" />
</svg>
