<svg xmlns="http://www.w3.org/2000/svg" viewBox="0 0 1024 1024" role="img" aria-label="Junco tailflash mark (smooth trace)">
  <path d="M4245 1730 c-189 -21 -461 -102 -735 -217 -228 -96 -237 -100 -510
-231 -207 -98 -315 -147 -390 -175 -243 -91 -487 -164 -685 -207 -55 -12 -118
-25 -140 -31 -232 -54 -822 -110 -1300 -124 -220 -6 -288 -13 -279 -26 3 -5
12 -9 21 -9 8 0 27 -8 41 -18 26 -18 91 -43 247 -97 107 -36 314 -89 470 -120
140 -28 140 -28 330 14 105 24 231 51 280 62 50 10 132 32 183 48 51 17 109
33 129 37 19 4 65 17 101 31 37 13 108 37 157 54 50 16 101 35 115 43 14 7 50
21 80 31 30 10 72 26 92 36 46 24 58 24 58 2 -1 -29 -185 -168 -397 -302 -21
-13 -103 -60 -183 -104 -80 -44 -167 -93 -195 -109 -27 -16 -58 -31 -68 -35
-27 -9 -15 -25 29 -39 21 -7 90 -28 152 -48 63 -20 120 -36 128 -36 8 0 72
-14 141 -31 137 -33 360 -75 488 -90 44 -5 86 -11 92 -14 13 -4 180 -14 333
-19 80 -3 355 18 430 33 264 51 446 120 621 237 195 131 305 243 604 620 190
239 326 340 537 398 133 37 133 36 37 89 -46 25 -102 49 -124 53 -31 6 -56 23
-121 88 -95 95 -100 99 -154 127 -142 74 -380 105 -615 79z" fill="#2b3336" transform="translate(253 394) translate(0.000000,174.000000) scale(0.100000,-0.100000)" />
  <path d="M0 1706 c0 -3 7 -14 15 -23 72 -84 105 -125 105 -133 0 -5 14 -17 30
-25 20 -10 33 -26 36 -45 5 -22 13 -29 39 -34 37 -7 60 -29 52 -49 -3 -7 4
-19 14 -25 12 -8 19 -8 19 -2 0 17 26 11 45 -10 10 -11 22 -20 27 -20 5 0 19
-9 31 -21 12 -12 42 -30 67 -41 24 -10 47 -23 50 -27 3 -4 32 -20 65 -35 33
-15 68 -32 77 -37 10 -5 24 -9 32 -9 7 0 25 -9 39 -20 14 -11 33 -20 42 -20
10 0 49 -9 86 -20 57 -17 69 -25 70 -43 1 -17 2 -18 6 -4 5 20 29 23 40 3 8
-12 52 -18 328 -42 39 -3 94 -9 124 -12 69 -9 342 5 481 24 14 2 48 5 75 8 77
7 125 17 125 27 0 5 13 9 28 9 15 0 32 4 38 9 9 10 55 23 143 42 25 5 47 12
50 17 7 8 42 25 91 43 41 14 109 45 130 59 8 5 41 21 73 34 52 23 78 48 64 62
-6 6 -255 24 -337 25 -24 0 -48 3 -53 6 -7 4 -113 12 -179 12 -31 1 -41 30
-10 32 15 0 14 1 -3 8 -10 4 -39 4 -63 -1 -24 -4 -49 -5 -55 -1 -5 3 -89 7
-186 8 -218 2 -381 24 -381 50 0 18 -25 26 -60 18 -22 -4 -30 -2 -30 8 -1 10
-5 8 -15 -5 -10 -13 -20 -16 -32 -11 -10 4 -29 7 -43 6 -35 -3 -230 26 -264
38 -15 6 -42 11 -59 11 -38 0 -51 8 -61 35 -5 13 -10 15 -13 8 -5 -14 -43 -18
-43 -5 0 4 -39 7 -87 7 -49 1 -110 6 -138 14 -27 7 -75 16 -105 20 -30 5 -73
13 -95 19 -22 6 -67 14 -100 18 -33 3 -91 13 -130 21 -77 17 -195 28 -195 19z
m2130 -301 c0 -8 -7 -15 -15 -15 -8 0 -15 7 -15 15 0 8 7 15 15 15 8 0 15 -7
15 -15z" fill="#9aa58a" transform="translate(253 394) translate(0.000000,174.000000) scale(0.100000,-0.100000)" />
</svg>
